

China / Hongkong
Drama / Actie


geregisseerd door Jackie Chan en Li Zhang
met Jackie Chan, Bingbing Li en Joan Chen

Verhaal over de laatste revolutie in China, die van 1911 waarin de Chinese keizer van de troon werd gestoten, het einde van de Qing-dynastie, en de republiek China werd uitgeroepen. Huang Xing is een revolutionair die uiteindelijk deze republiek uitriep na een felle strijd met de royalistische macht.



NL-ENG subs




Screenshots:
 
http://postimage.org/image/5q9qbou9v/ 
http://postimage.org/image/tvafteekj/ 
http://postimage.org/image/9cfjoc0n7/ 
http://postimage.org/image/nk58czdc3/




INFO;

Format                                   : Matroska
Format version                           : Version 2
File size                                : 3.22 GiB
Duration                                 : 2h 1mn
Overall bit rate                         : 3 813 Kbps
Encoded date                             : UTC 2012-02-19 09:46:20
Writing application                      : mkvmerge v3.3.0 ('Language') built on Mar 24 2010 14:59:24
Writing library                          : libebml v0.8.0 + libmatroska v0.9.0

Video
ID                                       : 1
Format                                   : MPEG-4 Visual
Format profile                           : Advanced Simple@L5
Format settings, BVOP                    : Yes
Format settings, QPel                    : No
Format settings, GMC                     : No warppoints
Format settings, Matrix                  : Custom
Codec ID                                 : XVID
Codec ID/Hint                            : XviD
Duration                                 : 2h 1mn
Bit rate                                 : 3 289 Kbps
Width                                    : 1 280 pixels
Height                                   : 544 pixels
Display aspect ratio                     : 2.35:1
Frame rate                               : 24.000 fps
Color space                              : YUV
Chroma subsampling                       : 4:2:0
Bit depth                                : 8 bits
Scan type                                : Progressive
Compression mode                         : Lossy
Bits/(Pixel*Frame)                       : 0.197
Stream size                              : 2.78 GiB (86%)
Writing library                          : XviD 1.2.1 (UTC 2008-12-04)
Default                                  : Yes
Forced                                   : No

Audio
ID                                       : 2
Format                                   : AC-3
Format/Info                              : Audio Coding 3
Mode extension                           : CM (complete main)
Codec ID                                 : A_AC3
Duration                                 : 2h 1mn
Bit rate mode                            : Constant
Bit rate                                 : 448 Kbps
Channel(s)                               : 6 channels
Channel positions                        : Front: L C R, Side: L R, LFE
Sampling rate                            : 48.0 KHz
Bit depth                                : 16 bits
Compression mode                         : Lossy
Stream size                              : 388 MiB (12%)
Default                                  : Yes
Forced                                   : No

Text #1
ID                                       : 3
Format                                   : UTF-8
Codec ID                                 : S_TEXT/UTF8
Codec ID/Info                            : UTF-8 Plain Text
Language                                 : Dutch
Default                                  : Yes
Forced                                   : No

Text #2
ID                                       : 4
Format                                   : UTF-8
Codec ID                                 : S_TEXT/UTF8
Codec ID/Info                            : UTF-8 Plain Text
Language                                 : English
Default                                  : No
Forced                                   : No




 
http://www.imdb.com/title/tt1772230/ 
http://www.moviemeter.nl/film/74532




Deze film wordt u aangeboden door het DutchReleaseTeam.
Voor de reviews van de nieuwste films, muziek, series, games etc
ga dan eens naar http://www.hetmultimediacafe.be/